<?xml version="1.0" encoding="UTF-8"?>
<!DOCTYPE svg PUBLIC "-//W3C//DTD SVG 1.1//EN" "http://www.w3.org/Graphics/SVG/1.1/DTD/svg11.dtd">
<svg xmlns="http://www.w3.org/2000/svg" version="1.1" width="74px" height="74px" style="shape-rendering:geometricPrecision; text-rendering:geometricPrecision; image-rendering:optimizeQuality; fill-rule:evenodd; clip-rule:evenodd" xmlns:xlink="http://www.w3.org/1999/xlink">
<g><path style="opacity:0.435" fill="#188d67" d="M 5.5,4.5 C 4.83333,4.5 4.16667,4.5 3.5,4.5C 3.15829,3.66175 2.49162,3.32842 1.5,3.5C 2.69231,1.07774 4.69231,0.0777386 7.5,0.5C 8.83333,0.833333 10.1667,1.16667 11.5,1.5C 9.11608,2.01078 7.11608,3.01078 5.5,4.5 Z"/></g>
<g><path style="opacity:0.42" fill="#1c865d" d="M 73.5,3.5 C 73.5,3.83333 73.5,4.16667 73.5,4.5C 72.1667,4.5 71.5,5.16667 71.5,6.5C 71.1667,6.5 70.8333,6.5 70.5,6.5C 70.5,5.83333 70.1667,5.5 69.5,5.5C 69.5,4.83333 69.1667,4.5 68.5,4.5C 68.5,3.83333 68.1667,3.5 67.5,3.5C 65.9581,2.83652 64.2914,2.16985 62.5,1.5C 66.6952,-0.188783 70.3619,0.477884 73.5,3.5 Z"/></g>
<g><path style="opacity:0.435" fill="#147d56" d="M 1.5,3.5 C 2.49162,3.32842 3.15829,3.66175 3.5,4.5C 2.92159,7.28044 2.25492,9.9471 1.5,12.5C 2.01017,9.61221 1.34351,7.27887 -0.5,5.5C -0.5,5.16667 -0.5,4.83333 -0.5,4.5C 0.166667,4.16667 0.833333,3.83333 1.5,3.5 Z"/></g>
<g><path style="opacity:0.216" fill="#47d211" d="M 25.5,4.5 C 24.8333,5.16667 24.1667,5.83333 23.5,6.5C 18.5,6.5 13.5,6.5 8.5,6.5C 7.66175,6.15829 7.32842,5.49162 7.5,4.5C 13.2902,4.2795 19.2902,4.2795 25.5,4.5 Z"/></g>
<g><path style="opacity:0.098" fill="#48d800" d="M 40.5,4.5 C 44.1667,4.5 47.8333,4.5 51.5,4.5C 52.5,5.16667 53.5,5.83333 54.5,6.5C 50.1667,6.5 45.8333,6.5 41.5,6.5C 41.1667,5.83333 40.8333,5.16667 40.5,4.5 Z"/></g>
<g><path style="opacity:0.027" fill="#2a8d04" d="M 25.5,4.5 C 30.5,4.5 35.5,4.5 40.5,4.5C 40.8333,5.16667 41.1667,5.83333 41.5,6.5C 35.5,6.5 29.5,6.5 23.5,6.5C 24.1667,5.83333 24.8333,5.16667 25.5,4.5 Z"/></g>
<g><path style="opacity:0.125" fill="#52ef04" d="M 51.5,4.5 C 55.1667,4.5 58.8333,4.5 62.5,4.5C 62.8333,5.16667 63.1667,5.83333 63.5,6.5C 60.5,6.5 57.5,6.5 54.5,6.5C 53.5,5.83333 52.5,5.16667 51.5,4.5 Z"/></g>
<g><path style="opacity:0.412" fill="#46b924" d="M 67.5,3.5 C 67.5,3.83333 67.5,4.16667 67.5,4.5C 68.6227,6.97869 68.6227,9.31203 67.5,11.5C 67.8432,9.51676 67.1765,8.18342 65.5,7.5C 65.1583,6.66175 64.4916,6.32842 63.5,6.5C 63.1667,5.83333 62.8333,5.16667 62.5,4.5C 63.9187,3.54885 65.5853,3.21552 67.5,3.5 Z"/></g>
<g><path style="opacity:0.306" fill="#08aa5c" d="M 73.5,4.5 C 73.5,7.16667 73.5,9.83333 73.5,12.5C 71.6921,11.0821 71.0254,9.08209 71.5,6.5C 71.5,5.16667 72.1667,4.5 73.5,4.5 Z"/></g>
<g><path style="opacity:0.329" fill="#1fca80" d="M -0.5,5.5 C 1.34351,7.27887 2.01017,9.61221 1.5,12.5C 0.833333,12.5 0.166667,12.5 -0.5,12.5C -0.5,10.1667 -0.5,7.83333 -0.5,5.5 Z"/></g>
<g><path style="opacity:0.361" fill="#37b737" d="M 5.5,4.5 C 6.16667,4.5 6.83333,4.5 7.5,4.5C 7.32842,5.49162 7.66175,6.15829 8.5,6.5C 7.83333,7.5 7.16667,8.5 6.5,9.5C 4.89581,13.8996 4.22914,18.5662 4.5,23.5C 4.16667,23.5 3.83333,23.5 3.5,23.5C 3.33391,17.8236 3.50058,12.1569 4,6.5C 4.71719,5.9558 5.21719,5.28913 5.5,4.5 Z"/></g>
<g><path style="opacity:0.039" fill="#0b431b" d="M 65.5,7.5 C 67.1765,8.18342 67.8432,9.51676 67.5,11.5C 67.5,16.1667 67.5,20.8333 67.5,25.5C 67.5,27.5 67.5,29.5 67.5,31.5C 66.5015,23.5215 65.8348,15.5215 65.5,7.5 Z"/></g>
<g><path style="opacity:0.153" fill="#49e14e" d="M 6.5,9.5 C 6.5,14.5 6.5,19.5 6.5,24.5C 5.50838,24.6716 4.84171,24.3382 4.5,23.5C 4.22914,18.5662 4.89581,13.8996 6.5,9.5 Z"/></g>
<g><path style="opacity:0.161" fill="#3fa440" d="M 67.5,4.5 C 67.8333,4.5 68.1667,4.5 68.5,4.5C 69.1667,4.5 69.5,4.83333 69.5,5.5C 70.1667,5.5 70.5,5.83333 70.5,6.5C 70.7947,8.73535 70.4614,10.7354 69.5,12.5C 68.8333,16.8333 68.1667,21.1667 67.5,25.5C 67.5,20.8333 67.5,16.1667 67.5,11.5C 68.6227,9.31203 68.6227,6.97869 67.5,4.5 Z"/></g>
<g><path style="opacity:0.031" fill="#1fac43" d="M 3.5,23.5 C 3.83333,23.5 4.16667,23.5 4.5,23.5C 4.84171,24.3382 5.50838,24.6716 6.5,24.5C 6.5,26.5 6.5,28.5 6.5,30.5C 5.66175,30.8417 5.32842,31.5084 5.5,32.5C 4.83333,32.1667 4.16667,31.8333 3.5,31.5C 3.5,28.8333 3.5,26.1667 3.5,23.5 Z"/></g>
<g><path style="opacity:0.039" fill="#24ba32" d="M 69.5,12.5 C 69.5,19.8333 69.5,27.1667 69.5,34.5C 68.8333,35.1667 68.1667,35.8333 67.5,36.5C 67.5,34.8333 67.5,33.1667 67.5,31.5C 67.5,29.5 67.5,27.5 67.5,25.5C 68.1667,21.1667 68.8333,16.8333 69.5,12.5 Z"/></g>
<g><path style="opacity:0.024" fill="#176e35" d="M 3.5,31.5 C 4.16667,31.8333 4.83333,32.1667 5.5,32.5C 5.66551,36.5138 5.49885,40.5138 5,44.5C 4.76791,45.7375 4.26791,46.7375 3.5,47.5C 3.5,42.1667 3.5,36.8333 3.5,31.5 Z"/></g>
<g><path style="opacity:0.047" fill="#14a268" d="M 6.5,30.5 C 6.5,36.1667 6.5,41.8333 6.5,47.5C 5.88258,47.6107 5.38258,47.944 5,48.5C 4.50454,50.4727 4.33788,52.4727 4.5,54.5C 4.16667,54.5 3.83333,54.5 3.5,54.5C 3.5,52.1667 3.5,49.8333 3.5,47.5C 4.26791,46.7375 4.76791,45.7375 5,44.5C 5.49885,40.5138 5.66551,36.5138 5.5,32.5C 5.32842,31.5084 5.66175,30.8417 6.5,30.5 Z"/></g>
<g><path style="opacity:0.047" fill="#08a05c" d="M 69.5,34.5 C 69.5,39.1667 69.5,43.8333 69.5,48.5C 68.8333,46.8333 68.1667,45.1667 67.5,43.5C 67.5,43.1667 67.5,42.8333 67.5,42.5C 67.5,40.5 67.5,38.5 67.5,36.5C 68.1667,35.8333 68.8333,35.1667 69.5,34.5 Z"/></g>
<g><path style="opacity:0.137" fill="#13c992" d="M 67.5,43.5 C 68.1667,45.1667 68.8333,46.8333 69.5,48.5C 69.5,52.8333 69.5,57.1667 69.5,61.5C 69.1667,61.5 68.8333,61.5 68.5,61.5C 68.8064,58.6146 68.4731,55.9479 67.5,53.5C 67.5,50.1667 67.5,46.8333 67.5,43.5 Z"/></g>
<g><path style="opacity:0.114" fill="#24ddae" d="M 6.5,47.5 C 6.5,50.5 6.5,53.5 6.5,56.5C 5.83333,55.8333 5.16667,55.1667 4.5,54.5C 4.33788,52.4727 4.50454,50.4727 5,48.5C 5.38258,47.944 5.88258,47.6107 6.5,47.5 Z"/></g>
<g><path style="opacity:0.051" fill="#103636" d="M 67.5,42.5 C 67.5,42.8333 67.5,43.1667 67.5,43.5C 67.5,46.8333 67.5,50.1667 67.5,53.5C 67.5,57.1667 67.5,60.8333 67.5,64.5C 67.1667,64.5 66.8333,64.5 66.5,64.5C 65.1264,56.9667 65.4597,49.6333 67.5,42.5 Z"/></g>
<g><path style="opacity:0.333" fill="#26b8b2" d="M 3.5,54.5 C 3.83333,54.5 4.16667,54.5 4.5,54.5C 5.16667,55.1667 5.83333,55.8333 6.5,56.5C 6.5,59.1667 6.5,61.8333 6.5,64.5C 5.73209,63.7375 5.23209,62.7375 5,61.5C 4.50454,63.4727 4.33788,65.4727 4.5,67.5C 3.51511,63.3656 3.18178,59.0323 3.5,54.5 Z"/></g>
<g><path style="opacity:0.055" fill="#1c8b64" d="M -0.5,61.5 C 0.5,61.5 1.5,61.5 2.5,61.5C 2.5,63.8333 2.5,66.1667 2.5,68.5C 1.69808,67.0484 1.19808,65.3817 1,63.5C 0.296689,65.9291 0.463356,68.2625 1.5,70.5C 0.833333,70.5 0.166667,70.5 -0.5,70.5C -0.5,67.5 -0.5,64.5 -0.5,61.5 Z"/></g>
<g><path style="opacity:0.376" fill="#0bebc6" d="M 6.5,64.5 C 6.42702,66.0269 7.09368,67.0269 8.5,67.5C 8.5,67.8333 8.5,68.1667 8.5,68.5C 7.16667,68.1667 5.83333,67.8333 4.5,67.5C 4.33788,65.4727 4.50454,63.4727 5,61.5C 5.23209,62.7375 5.73209,63.7375 6.5,64.5 Z"/></g>
<g><path style="opacity:0.063" fill="#07a89a" d="M 6.5,64.5 C 10.5269,66.3584 14.8602,67.0251 19.5,66.5C 16.0381,67.4816 12.3714,67.815 8.5,67.5C 7.09368,67.0269 6.42702,66.0269 6.5,64.5 Z"/></g>
<g><path style="opacity:0.098" fill="#02b99e" d="M 66.5,64.5 C 66.8333,64.5 67.1667,64.5 67.5,64.5C 67.5,65.5 67.5,66.5 67.5,67.5C 62.8333,67.5 58.1667,67.5 53.5,67.5C 53.5,67.1667 53.5,66.8333 53.5,66.5C 58.294,67.0969 62.6273,66.4302 66.5,64.5 Z"/></g>
<g><path style="opacity:0.329" fill="#12dbcd" d="M 19.5,66.5 C 20.1667,66.5 20.8333,66.5 21.5,66.5C 22.1667,67.1667 22.8333,67.8333 23.5,68.5C 18.5,68.5 13.5,68.5 8.5,68.5C 8.5,68.1667 8.5,67.8333 8.5,67.5C 12.3714,67.815 16.0381,67.4816 19.5,66.5 Z"/></g>
<g><path style="opacity:0.047" fill="#188a8a" d="M 21.5,66.5 C 24.6085,66.2641 27.6085,66.5975 30.5,67.5C 30.5,67.8333 30.5,68.1667 30.5,68.5C 28.1667,68.5 25.8333,68.5 23.5,68.5C 22.8333,67.8333 22.1667,67.1667 21.5,66.5 Z"/></g>
<g><path style="opacity:0.012" fill="#074c48" d="M 30.5,68.5 C 30.5,68.1667 30.5,67.8333 30.5,67.5C 33.1667,67.5 35.8333,67.5 38.5,67.5C 47.7755,69.4733 57.4422,70.14 67.5,69.5C 67.5,69.8333 67.5,70.1667 67.5,70.5C 55.8071,70.7213 44.1404,70.388 32.5,69.5C 32.1583,68.6618 31.4916,68.3284 30.5,68.5 Z"/></g>
<g><path style="opacity:0.024" fill="#138f88" d="M 53.5,66.5 C 53.5,66.8333 53.5,67.1667 53.5,67.5C 49.8183,67.3347 46.1516,67.5014 42.5,68C 51.1603,68.4998 59.8269,68.6664 68.5,68.5C 68.5,68.8333 68.5,69.1667 68.5,69.5C 68.1667,69.5 67.8333,69.5 67.5,69.5C 57.4422,70.14 47.7755,69.4733 38.5,67.5C 43.4376,66.6076 48.4376,66.2743 53.5,66.5 Z"/></g>
<g><path style="opacity:0.408" fill="#18e5cd" d="M 67.5,53.5 C 68.4731,55.9479 68.8064,58.6146 68.5,61.5C 68.5,63.8333 68.5,66.1667 68.5,68.5C 59.8269,68.6664 51.1603,68.4998 42.5,68C 46.1516,67.5014 49.8183,67.3347 53.5,67.5C 58.1667,67.5 62.8333,67.5 67.5,67.5C 67.5,66.5 67.5,65.5 67.5,64.5C 67.5,60.8333 67.5,57.1667 67.5,53.5 Z"/></g>
<g><path style="opacity:0.276" fill="#18807b" d="M 4.5,68.5 C 4.5,68.1667 4.5,67.8333 4.5,67.5C 5.83333,67.8333 7.16667,68.1667 8.5,68.5C 13.5,68.5 18.5,68.5 23.5,68.5C 25.8333,68.5 28.1667,68.5 30.5,68.5C 31.4916,68.3284 32.1583,68.6618 32.5,69.5C 23.9116,70.6357 15.2449,70.8023 6.5,70C 5.9558,69.2828 5.28913,68.7828 4.5,68.5 Z"/></g>
<g><path style="opacity:0.447" fill="#1a8e61" d="M 68.5,61.5 C 68.8333,61.5 69.1667,61.5 69.5,61.5C 69.8923,63.1789 70.3923,64.8455 71,66.5C 71.0496,64.256 71.8829,62.5893 73.5,61.5C 73.5,64.5 73.5,67.5 73.5,70.5C 72.1667,71.1667 71.1667,72.1667 70.5,73.5C 67.8333,73.5 65.1667,73.5 62.5,73.5C 63.8021,71.9724 65.4687,70.9724 67.5,70.5C 68.1667,70.5 68.5,70.1667 68.5,69.5C 69.3764,69.6309 70.0431,69.2975 70.5,68.5C 70.0302,67.537 69.3635,67.537 68.5,68.5C 68.5,66.1667 68.5,63.8333 68.5,61.5 Z"/></g>
<g><path style="opacity:0.435" fill="#189c5e" d="M 2.5,68.5 C 3.16667,68.5 3.83333,68.5 4.5,68.5C 4.55688,69.609 4.89022,70.609 5.5,71.5C 4.66175,71.8417 4.32842,72.5084 4.5,73.5C 4.16667,73.5 3.83333,73.5 3.5,73.5C 2.83333,72.5 2.16667,71.5 1.5,70.5C 0.463356,68.2625 0.296689,65.9291 1,63.5C 1.19808,65.3817 1.69808,67.0484 2.5,68.5 Z"/></g>
<g><path style="opacity:0.4" fill="#10b66f" d="M 5.5,71.5 C 8.08209,71.0254 10.0821,71.6921 11.5,73.5C 9.16667,73.5 6.83333,73.5 4.5,73.5C 4.32842,72.5084 4.66175,71.8417 5.5,71.5 Z"/></g>
</svg>
