<?xml version="1.0" standalone="no"?>
<!DOCTYPE svg PUBLIC "-//W3C//DTD SVG 20010904//EN"
 "http://www.w3.org/TR/2001/REC-SVG-20010904/DTD/svg10.dtd">
<svg version="1.0" xmlns="http://www.w3.org/2000/svg"
 width="1103.000000pt" height="1280.000000pt" viewBox="0 0 1103.000000 1280.000000"
 preserveAspectRatio="xMidYMid meet">
<metadata>
Created by potrace 1.15, written by Peter Selinger 2001-2017
</metadata>
<g transform="translate(0.000000,1280.000000) scale(0.100000,-0.100000)"
fill="#eee" stroke="none">
<path d="M5470 12780 c-14 -4 -1069 -636 -2345 -1405 -1276 -769 -2473 -1490
-2660 -1603 -187 -112 -342 -206 -344 -208 -3 -3 3 -18 12 -33 22 -37 21 -41
-2 -41 -17 0 -20 -10 -25 -102 -3 -57 -8 -292 -11 -523 -3 -231 -10 -676 -15
-990 -5 -313 -14 -849 -20 -1190 -6 -341 -15 -885 -20 -1210 -5 -324 -14 -864
-20 -1200 -5 -335 -12 -744 -16 -907 l-6 -298 23 0 c12 0 30 -6 38 -13 9 -8
1211 -670 2673 -1471 l2656 -1458 32 -59 31 -59 47 27 c26 15 56 33 67 40 11
7 32 13 47 13 17 0 28 5 28 14 0 8 127 87 293 182 160 92 1329 761 2597 1487
1268 725 2306 1320 2308 1322 2 2 -1 13 -8 24 -10 19 -8 21 23 21 l34 0 7 373
c7 430 21 1254 36 2147 6 344 15 884 20 1200 5 316 15 874 21 1240 6 366 14
842 17 1058 6 316 5 392 -6 392 -8 0 -12 10 -10 26 3 25 -15 37 -267 184 -148
86 -1350 784 -2670 1550 -1320 766 -2431 1411 -2470 1434 -54 33 -76 41 -95
36z m5087 -3138 c111 -65 202 -119 202 -122 0 -3 -215 -127 -477 -276 -262
-150 -1406 -804 -2542 -1454 -1136 -650 -2069 -1182 -2075 -1182 -5 0 -901
489 -1990 1087 -1089 598 -2276 1249 -2637 1448 -362 198 -658 363 -658 366 0
3 368 227 818 498 449 271 1597 962 2550 1536 l1733 1044 2437 -1414 c1340
-778 2528 -1467 2639 -1531z m-8871 -1057 c758 -416 1933 -1061 2610 -1432
1115 -613 1232 -679 1251 -712 l20 -36 -50 -3055 c-28 -1680 -51 -3056 -52
-3058 -2 -2 -605 328 -4025 2205 l-1255 689 2 305 c3 288 11 810 33 2154 5
325 14 869 20 1210 42 2554 41 2497 54 2492 7 -3 633 -346 1392 -762z m9115
-25 c-6 -377 -16 -946 -21 -1265 -11 -658 -25 -1491 -40 -2405 -23 -1350 -28
-1662 -32 -1665 -1 -2 -309 -178 -683 -392 -3392 -1942 -4377 -2504 -4379
-2501 -2 1 18 1299 45 2883 27 1584 50 2959 51 3054 l3 175 268 154 c148 84
1286 736 2530 1448 l2262 1294 3 -47 c2 -27 -1 -356 -7 -733z"/>
<path d="M5320 10103 c-272 -41 -461 -105 -610 -206 -65 -45 -165 -143 -199
-196 -45 -71 -71 -159 -71 -244 0 -297 302 -541 775 -628 141 -26 418 -31 550
-10 299 47 516 143 671 296 131 129 181 261 156 408 -49 284 -364 504 -819
572 -93 14 -382 19 -453 8z"/>
<path d="M1490 7705 c-36 -8 -106 -35 -157 -61 -163 -81 -274 -225 -318 -411
-24 -98 -17 -305 14 -415 95 -345 357 -656 693 -823 154 -76 262 -105 415
-112 78 -4 145 -1 185 7 527 102 681 699 320 1245 -176 266 -467 481 -752 554
-110 29 -307 37 -400 16z"/>
<path d="M3415 3806 c-100 -23 -171 -55 -247 -109 -376 -271 -333 -882 94
-1323 252 -261 535 -393 839 -394 262 0 476 123 578 332 59 120 73 182 72 328
0 144 -25 259 -86 399 -158 358 -485 647 -846 746 -117 33 -311 42 -404 21z"/>
<path d="M9595 8025 c-281 -53 -522 -181 -725 -384 -159 -159 -243 -302 -291
-492 -28 -110 -23 -281 11 -378 32 -89 114 -206 185 -264 68 -55 192 -118 280
-142 90 -25 318 -31 431 -11 413 71 785 341 954 690 60 125 79 194 86 316 19
308 -169 559 -486 650 -100 29 -329 36 -445 15z"/>
<path d="M8512 5799 c-289 -37 -587 -191 -799 -412 -339 -353 -387 -801 -113
-1075 81 -81 206 -150 335 -183 117 -31 333 -31 470 0 454 103 831 424 955
813 60 190 36 408 -61 560 -43 67 -153 167 -226 206 -160 85 -361 117 -561 91z"/>
<path d="M7370 3463 c-199 -21 -440 -113 -620 -237 -102 -70 -257 -221 -320
-311 -63 -92 -132 -237 -154 -325 -60 -235 -3 -462 155 -620 153 -154 419
-232 676 -201 531 65 993 442 1099 899 19 84 19 239 0 313 -30 111 -75 189
-160 274 -118 117 -232 172 -416 200 -89 14 -180 17 -260 8z"/>
</g>
</svg>
