<svg xmlns="http://www.w3.org/2000/svg" xmlns:xlink="http://www.w3.org/1999/xlink" viewBox="0 0 84 84"><defs><style>.cls-1{isolation:isolate;}.cls-2{fill:url(#Безымянный_градиент_32);}.cls-3{opacity:0.52;mix-blend-mode:lighten;}.cls-4{fill:url(#Безымянный_градиент_81);}.cls-5,.cls-6{fill:none;stroke-width:3.61px;}.cls-5,.cls-6,.cls-7{stroke-miterlimit:10;}.cls-5{opacity:0.12;mix-blend-mode:multiply;stroke:url(#Безымянный_градиент_15);}.cls-6{stroke:url(#Безымянный_градиент_16);}.cls-7{stroke:#9b5c15;fill:url(#Безымянный_градиент_21);}</style><radialGradient id="Безымянный_градиент_32" cx="42.17" cy="41.98" fx="-4.9422437889275415" r="47.12" gradientTransform="translate(-11.45 84.18) rotate(-90) scale(1 1.27)" gradientUnits="userSpaceOnUse"><stop offset="0" stop-color="#f1a812"/><stop offset="0.15" stop-color="#eea612"/><stop offset="0.25" stop-color="#e5a012"/><stop offset="0.35" stop-color="#d59512"/><stop offset="0.43" stop-color="#bf8513"/><stop offset="0.49" stop-color="#aa7713"/><stop offset="0.75" stop-color="#8c5d14"/><stop offset="1" stop-color="#2f2114"/></radialGradient><radialGradient id="Безымянный_градиент_81" cx="42.36" cy="28.78" fy="55.22435717785195" r="35.12" gradientTransform="translate(0 -7.62) scale(1 1.26)" gradientUnits="userSpaceOnUse"><stop offset="0.47" stop-color="#2581c4" stop-opacity="0.1"/><stop offset="0.76" stop-color="#988485"/></radialGradient><radialGradient id="Безымянный_градиент_15" cx="42.95" cy="50.26" r="39.47" gradientTransform="matrix(0, -1.01, 1.29, 0, -22.87, 87.37)" gradientUnits="userSpaceOnUse"><stop offset="0" stop-color="#9c2117"/><stop offset="0.22" stop-color="#992116"/><stop offset="0.38" stop-color="#901f15"/><stop offset="0.52" stop-color="#801c12"/><stop offset="0.54" stop-color="#7d1c11"/><stop offset="0.75" stop-color="#4d160f"/><stop offset="1" stop-color="#2f2114"/></radialGradient><linearGradient id="Безымянный_градиент_16" y1="42" x2="84" y2="42" gradientUnits="userSpaceOnUse"><stop offset="0" stop-color="#ed7"/><stop offset="0.25" stop-color="#a37d3a"/><stop offset="0.52" stop-color="#d4b253"/><stop offset="0.77" stop-color="#bd8730"/><stop offset="1" stop-color="#f1e177"/></linearGradient><linearGradient id="Безымянный_градиент_21" x1="42.86" y1="14.94" x2="42.86" y2="69.02" gradientUnits="userSpaceOnUse"><stop offset="0" stop-color="#efea7c"/><stop offset="0.25" stop-color="#ede54f"/><stop offset="0.58" stop-color="#d4b253"/><stop offset="0.79" stop-color="#bd8730"/><stop offset="1" stop-color="#c9830f"/></linearGradient></defs><g class="cls-1"><g id="Слой_9_копия3_" data-name="Слой 9 (копия3)"><circle class="cls-2" cx="42" cy="42" r="40.2"/><g id="Слой_10_копия3_" data-name="Слой 10 (копия3)"><g class="cls-3"><path class="cls-4" d="M71.57,26.21c1.3,12.85-13.16,23.39-29.4,23.39s-29.6-9.88-29.1-23.26c.27-7,12.8-18.4,28.9-18.38S70.81,18.7,71.57,26.21Z" transform="translate(-0.17 0.02)"/></g></g><path class="cls-5" d="M80,42c0,20.1-17.69,40.2-37.8,40.2S4,62.08,4,42,22.12,5.53,42.22,5.53,80,21.88,80,42Z" transform="translate(-0.17 0.02)"/><circle class="cls-6" cx="42" cy="42" r="40.2"/><g id="Слой_13_копия_3" data-name="Слой 13 копия 3"><path class="cls-7" d="M46.84,53.72H39.23V48.46a7.13,7.13,0,0,1,1.07-4.18A25.45,25.45,0,0,1,45,40q5.53-4.25,5.54-9a7.61,7.61,0,0,0-2.16-5.7,7.78,7.78,0,0,0-5.64-2.1q-8,0-9.48,11.12l-8.51-1.53q.78-8.31,6.15-13a18.74,18.74,0,0,1,12.85-4.74,17.65,17.65,0,0,1,12.33,4.43,14.25,14.25,0,0,1,4.88,11,14.94,14.94,0,0,1-1.34,6.23,14.45,14.45,0,0,1-3.07,4.56,90.68,90.68,0,0,1-7.26,5.68,5.54,5.54,0,0,0-2,2.2A16.19,16.19,0,0,0,46.84,53.72Zm1.56,5.55V69H39.23V59.27Z" transform="translate(-0.17 0.02)"/></g></g></g></svg>