<?xml version="1.0" encoding="UTF-8"?>
<svg xmlns="http://www.w3.org/2000/svg" version="1.1" xmlns:xlink="http://www.w3.org/1999/xlink" viewBox="2.42 5.82 83 123.53">
  <defs>
    <style>
      .cls-1 {
        fill: #1b696f;
      }

      .cls-2 {
        fill: #0e464f;
      }

      .cls-3 {
        fill: url(#_Безымянный_градиент_9);
      }
    </style>
  </defs>
  <!-- Generator: Adobe Illustrator 28.7.1, SVG Export Plug-In . SVG Version: 1.2.0 Build 142)  -->
  <g>
    <g id="_Слой_3" data-name="Слой_3">
      <path class="cls-3" d="M2.42,5.82v112.88h82.5V5.82H2.42ZM43.67,100.18c-19.09,0-34.57-15.48-34.57-34.57S24.58,31.05,43.67,31.05s34.56,15.47,34.56,34.56-15.47,34.57-34.56,34.57Z"/>
      <g>
        <path class="cls-2" d="M5.06,112.77v.39c.62.86,2.32,3.18-.35,4-.76.23-1.65-.1-2.28-.72v2.34h5.62c.53-1.14.69-2.48.29-3.51-.94-2.4-3.28-2.5-3.28-2.5Z"/>
        <path class="cls-2" d="M82.64,117.17c-2.58-.79-1-3.08-.35-4v-.39s-2.34.1-3.28,2.5c-.41,1.03-.24,2.38.29,3.51h5.62v-2.34c-.63.62-1.52.96-2.28.72Z"/>
        <path class="cls-2" d="M84.92,96.24s-1.94,6.93-7.03,11.64c0,0,.17-9.05-7.16-8.13-5.26.66-6.86,6-5.04,9.57,1.55,3.03,4.25,1.15,3.63-.5,0,0-1.13,1.98-2.11.57-.71-1.02.12-2.85,1.88-2.44,1.99.74,2.49,3.25,1.04,4.52-2.54,2.22-8.17-2.39-12.15-3.55,0,0,.92-2.5-.29-3.15,0,0-.4,2.79-5.34,3.89-3.46,1.11-4.32,1.43-7,4.57l-1.67-1.48h0s0,0,0,0h0s0,0,0,0l-1.67,1.48c-2.68-3.14-3.54-3.46-7-4.57-4.94-1.11-5.34-3.89-5.34-3.89-1.21.65-.29,3.15-.29,3.15-3.98,1.16-9.61,5.78-12.15,3.55-1.45-1.27-.95-3.79,1.04-4.52,1.76-.4,2.6,1.42,1.88,2.44-.98,1.41-2.11-.57-2.11-.57-.62,1.64,2.08,3.53,3.63.5,1.82-3.57.22-8.91-5.04-9.57-7.33-.92-7.16,8.13-7.16,8.13-5.09-4.71-7.03-11.64-7.03-11.64v6.74l2.2,3.88s-1.46.58-2.2,1.17v4.88c.28-.27.63-.54,1.08-.78,3.88-2.12,6.47-.37,6.47-.37,0,0,2.93,3.05,4.49,3.51l-5.7,3.51h17.26s-4.06-1.57-4.49-2.49c0,0,2.7-.74,5.32-1.54,3.27-1,4.49,2.72,2.61,3.19-1.38.35-2.61-1.6-2.61-1.6,0,0,0,2.45,2.12,2.45,1.04,0,2.62-.75,2.4-2.87-.2-1.93-2.16-2.31-2.16-2.31,0,0,1.99-1.02,3.8-.92,0,0-3.28,2.95.17,5.35,0,0,2.42.59,2.93-1.29,0,0-3.01,1.12-3.1-1.1-.09-2.22,1.98-2.13,1.98-2.13,0,0,3.38.78,1.12,5.27h3.97l1.04-1.94s.4,1.1.17,1.94h4.73c-.23-.85.17-1.94.17-1.94l1.04,1.94h3.97c-2.26-4.49,1.12-5.27,1.12-5.27,0,0,2.07-.08,1.98,2.13-.09,2.22-3.1,1.1-3.1,1.1.51,1.88,2.93,1.29,2.93,1.29,3.45-2.4.17-5.35.17-5.35,1.81-.09,3.8.92,3.8.92,0,0-1.96.38-2.16,2.31-.22,2.12,1.36,2.87,2.4,2.87,2.12,0,2.12-2.45,2.12-2.45,0,0-1.24,1.95-2.61,1.6-1.88-.48-.66-4.19,2.61-3.19,2.62.81,5.32,1.54,5.32,1.54-.43.92-4.49,2.49-4.49,2.49h17.26l-5.7-3.51c1.55-.46,4.49-3.51,4.49-3.51,0,0,2.59-1.75,6.47.37.45.25.81.51,1.08.78v-4.88c-.75-.59-2.2-1.17-2.2-1.17l2.2-3.88v-6.74ZM11.81,104.23c2.34-5.61,9.86-2.12,9.46,3.07,0,0-1.78-3.56-5.47-.46-1.38-.76-1.85-.18-2.21.66v.74c.3-.05,1.23-.93,1.19-.49-.04.48.94,1.25,1.15,2.41.11.57-.61,1.71.26,2.46-2.77-.75-6.6-3.1-4.39-8.39ZM25.47,112.87c-2.39,1.52-6.15,1.04-6.15,1.04,0,0,8.13-3.74,9.19-3.95,3.48-.69,5.89.55,5.89.55,0,0-4.7-.34-8.93,2.36ZM38.16,117.92c.68-4.38-2.01-5.43-2.41-5.56.47.12,4.11,1.09,4.1,2.97-.02,2.92-1.68,2.59-1.68,2.59ZM43.67,117.05c-1.09,0-1.45-1.28-.87-1.74.36-.29.75-.35.87-.36.12.01.51.07.87.36.58.46.22,1.74-.87,1.74ZM49.19,117.92s-1.66.33-1.68-2.59c-.01-1.88,3.63-2.85,4.1-2.97-.4.13-3.1,1.18-2.41,5.56ZM61.88,112.87c-4.24-2.69-8.93-2.36-8.93-2.36,0,0,2.41-1.24,5.89-.55,1.06.21,9.19,3.95,9.19,3.95,0,0-3.75.48-6.15-1.04ZM71.15,112.62c.87-.75.15-1.89.26-2.46.22-1.17,1.2-1.93,1.15-2.41-.05-.5.85.41,1.19.49v-.74c-.36-.84-.82-1.42-2.21-.66-3.69-3.1-5.47.46-5.47.46-.4-5.18,7.12-8.67,9.46-3.07,2.21,5.29-1.62,7.64-4.39,8.39Z"/>
      </g>
      <g>
        <path class="cls-1" d="M5.06,113.17s2.92,3.17-.35,4.11c-.76.22-1.65-.09-2.28-.67v2.18h5.62c.53-1.06.69-2.32.29-3.28-.94-2.24-3.28-2.33-3.28-2.33Z"/>
        <path class="cls-1" d="M82.64,117.27c-3.27-.94-.35-4.11-.35-4.11,0,0-2.34.09-3.28,2.33-.41.96-.24,2.22.29,3.28h5.62v-2.18c-.63.58-1.52.89-2.28.67Z"/>
        <path class="cls-1" d="M84.92,97.72s-1.94,6.47-7.03,10.88c0,0,.17-8.46-7.16-7.59-5.26.62-6.86,5.61-5.04,8.95,1.55,2.83,4.25,1.07,3.63-.46,0,0-1.13,1.85-2.11.53-.71-.96.12-2.66,1.88-2.28,1.99.69,2.49,3.04,1.04,4.23-2.54,2.08-8.17-2.24-12.15-3.32,0,0,.92-2.34-.29-2.94,0,0-.4,2.6-5.34,3.64-3.46,1.04-4.32,1.33-7,4.27l-1.67-1.38h0s0,0,0,0h0s0,0,0,0l-1.67,1.38c-2.68-2.93-3.54-3.23-7-4.27-4.94-1.04-5.34-3.64-5.34-3.64-1.21.61-.29,2.94-.29,2.94-3.98,1.08-9.61,5.4-12.15,3.32-1.45-1.19-.95-3.54,1.04-4.23,1.76-.38,2.6,1.33,1.88,2.28-.98,1.31-2.11-.53-2.11-.53-.62,1.54,2.08,3.3,3.63.46,1.82-3.34.22-8.33-5.04-8.95-7.33-.86-7.16,7.59-7.16,7.59-5.09-4.4-7.03-10.88-7.03-10.88v6.3l2.2,3.62s-1.46.54-2.2,1.09v4.56c.28-.26.63-.5,1.08-.73,3.88-1.99,6.47-.35,6.47-.35,0,0,2.93,2.85,4.49,3.28l-5.7,3.28h17.26s-4.06-1.47-4.49-2.33c0,0,2.7-.69,5.32-1.44,3.27-.94,4.49,2.54,2.61,2.98-1.38.33-2.61-1.5-2.61-1.5,0,0,0,2.29,2.12,2.29,1.04,0,2.62-.7,2.4-2.68-.2-1.81-2.16-2.16-2.16-2.16,0,0,1.99-.95,3.8-.86,0,0-3.28,2.76.17,5,0,0,2.42.55,2.93-1.2,0,0-3.01,1.04-3.1-1.03-.09-2.07,1.98-1.99,1.98-1.99,0,0,3.38.73,1.12,4.92h3.97l1.04-1.82s.4,1.03.17,1.82h4.73c-.23-.79.17-1.82.17-1.82l1.04,1.82h3.97c-2.26-4.2,1.12-4.92,1.12-4.92,0,0,2.07-.08,1.98,1.99-.09,2.07-3.1,1.03-3.1,1.03.51,1.76,2.93,1.2,2.93,1.2,3.45-2.25.17-5,.17-5,1.81-.09,3.8.86,3.8.86,0,0-1.96.35-2.16,2.16-.22,1.98,1.36,2.68,2.4,2.68,2.12,0,2.12-2.29,2.12-2.29,0,0-1.24,1.82-2.61,1.5-1.88-.44-.66-3.92,2.61-2.98,2.62.76,5.32,1.44,5.32,1.44-.43.86-4.49,2.33-4.49,2.33h17.26l-5.7-3.28c1.55-.43,4.49-3.28,4.49-3.28,0,0,2.59-1.64,6.47.35.45.23.81.48,1.08.73v-4.56c-.75-.55-2.2-1.09-2.2-1.09l2.2-3.62v-6.3ZM11.81,105.18c2.34-5.24,9.86-1.98,9.46,2.87,0,0-1.78-3.33-5.47-.43-1.38-.71-1.85-.17-2.21.62.16-.07,1.27-.55,1.19.23-.04.45.94,1.16,1.15,2.26.11.53-.61,1.6.26,2.3-2.77-.7-6.6-2.9-4.39-7.84ZM25.47,113.26c-2.39,1.42-6.15.97-6.15.97,0,0,8.13-3.5,9.19-3.69,3.48-.64,5.89.52,5.89.52,0,0-4.7-.32-8.93,2.2ZM38.16,117.98c.68-4.09-2.01-5.07-2.41-5.2.47.11,4.11,1.02,4.1,2.78-.02,2.73-1.68,2.42-1.68,2.42ZM43.67,117.17c-1.09,0-1.45-1.19-.87-1.62.36-.27.75-.32.87-.33.12.01.51.06.87.33.58.43.22,1.62-.87,1.62ZM49.19,117.98s-1.66.31-1.68-2.42c-.01-1.76,3.63-2.67,4.1-2.78-.4.12-3.1,1.1-2.41,5.2ZM61.88,113.26c-4.24-2.52-8.93-2.2-8.93-2.2,0,0,2.41-1.16,5.89-.52,1.06.19,9.19,3.69,9.19,3.69,0,0-3.75.45-6.15-.97ZM71.15,113.02c.87-.7.15-1.76.26-2.3.22-1.09,1.2-1.8,1.15-2.26-.08-.78,1.03-.3,1.19-.23-.36-.79-.82-1.33-2.21-.62-3.69-2.9-5.47.43-5.47.43-.4-4.84,7.12-8.1,9.46-2.87,2.21,4.94-1.62,7.14-4.39,7.84Z"/>
      </g>
    </g>
  </g>
</svg>